{"title":"Gunless-AC3-BRRip 2010 TBS","uid":6042558,"size":1428293745,"categoryP":"video","categoryS":"movies","magnet":"?xt=urn:btih:8a7afaf5ceb422551828ee01fdceeb5bec090b43&amp;dn=Gunless-AC3-BRRip+2010+TBS&amp;tr=udp%3A%2F%2Ftracker.openbittorrent.com%3A80&amp;tr=udp%3A%2F%2Fopen.demonii.com%3A1337&amp;tr=udp%3A%2F%2Ftracker.coppersurfer.tk%3A6969&amp;tr=udp%3A%2F%2Fexodus.desync.com%3A6969","seeders":0,"leechers":1,"uploader":"FatFreddy30","files":-1,"time":1292426330,"description":"A hardened American gunslinger is repeatedly thwarted in his attempts to mount a showdown in a friendly town in Canada where no one seems to understand or appreciate the brutal code of the American Wild West.\n &lt;a href=&quot;\nhttp://www.imdb.com/title/tt1376195/&quot; rel=&quot;nofollow&quot; target=&quot;_NEW&quot;&gt;\nhttp://www.imdb.com/title/tt1376195/&lt;/a&gt;\n\nSubs: Dutch, English (srt).\n\nDe gevaarlijke en beruchte 'The Montana Kid' begeeft zich naar het kleine Canadese dorpje Barclay's Brush. Het dorpje heeft slechts zeventien inwoners. 'The Kid' krijgt al meteen een woordenwisseling met Jack (een smid), die hem uitdaagt voor een pistoolgevecht. Dit lijkt erg moeilijk te worden, aangezien het dorpje niet geschikt lijkt te zijn voor een pistoolgevecht, en er niet eens werkende pistolen te vinden zijn.\n &lt;a href=&quot;\nhttp://www.moviemeter.nl/film/61325&quot; rel=&quot;nofollow&quot; target=&quot;_NEW&quot;&gt;\nhttp://www.moviemeter.nl/film/61325&lt;/a&gt;\n\nOndertitels: Engels, Nederlands.\n\nGeneral\nComplete name                    : Gunless-AC3-BRRip 2010 TBS\\Gunless-AC3-BRRip 2010 TBS.avi\nFormat                           : AVI\nFormat/Info                      : Audio Video Interleave\nFile size                        : 1.33 GiB\nDuration                         : 1h 29mn\nOverall bit rate                 : 2 138 Kbps\nWriting application              : VirtualDubMod 1.5.4.1 (build 2178/release)\nWriting library                  : VirtualDubMod build 2178/release\nSource                           : Gunless 2010 LiMiTED 720p BluRay x264-PUZZLE \n\nVideo\nID                               : 0\nFormat                           : MPEG-4 Visual\nFormat profile                   : Simple@L3\nFormat settings, BVOP            : No\nFormat settings, QPel            : No\nFormat settings, GMC             : No warppoints\nFormat settings, Matrix          : Default (H.263)\nCodec ID                         : XVID\nCodec ID/Hint                    : XviD\nDuration                         : 1h 29mn\nBit rate                         : 1 680 Kbps\nWidth                            : 720 pixels\nHeight                           : 304 pixels\nDisplay aspect ratio             : 2.35:1\nFrame rate                       : 23.976 fps\nResolution                       : 8 bits\nColorimetry                      : 4:2:0\nScan type                        : Progressive\nBits/(Pixel*Frame)               : 0.320\nStream size                      : 1.05 GiB (79%)\nWriting library                  : XviD 1.1.2 (UTC 2006-11-01)\n\nAudio\nID                               : 1\nFormat                           : AC-3\nFormat/Info                      : Audio Coding 3\nCodec ID                         : 2000\nDuration                         : 1h 29mn\nBit rate mode                    : Constant\nBit rate                         : 448 Kbps\nChannel(s)                       : 6 channels\nChannel positions                : Front: L C R, Surround: L R, LFE\nSampling rate                    : 48.0 KHz\nStream size                      : 285 MiB (21%)\nAlignment                        : Split accross interleaves\nInterleave, duration             : 42 ms (1.00 video frame)\nInterleave, preload duration     : 500 ms\n\nBlackbeard  TBS\n\nEnjoy..","torrent":{"xt":"urn:btih:8a7afaf5ceb422551828ee01fdceeb5bec090b43","amp;dn":"Gunless-AC3-BRRip+2010+TBS","amp;tr":["udp%3A%2F%2Ftracker.openbittorrent.com%3A80","udp%3A%2F%2Fopen.demonii.com%3A1337","udp%3A%2F%2Ftracker.coppersurfer.tk%3A6969","udp%3A%2F%2Fexodus.desync.com%3A6969"],"infoHash":"8a7afaf5ceb422551828ee01fdceeb5bec090b43","infoHashBuffer":{"type":"Buffer","data":[138,122,250,245,206,180,34,85,24,40,238,1,253,206,235,91,236,9,11,67]},"announce":[],"urlList":[]}}